# xmcd CD database file
#
# Track frame offsets:
#	150
#	23875
#	47220
#	66578
#	91904
#	110279
#	133752
#	157763
#	169937
#	187860
#	211027
#	244863
#	259676
#	292342
#	315010
#
# Disc length: 4382 seconds
#
# Revision: 0
# Processed by: cddbd v1.5PL3 Copyright (c) Steve Scherf et al.
# Submitted via: CDex 1.50
#
DISCID=cc111c0f
DTITLE=Dizzy Gillespie - The Carnegie Hall Concert, featuring Charlie Parker
DYEAR=1947
DGENRE=Jazz
TTITLE0=Groovin' High
TTITLE1=A Night in Tunisia
TTITLE2=Koko
TTITLE3=Confirmation
TTITLE4=Dizzy Atmosphere
TTITLE5=Cool Breeze
TTITLE6=One Bass Hit
TTITLE7=Relaxin' at Camarillo
TTITLE8=Nearness
TTITLE9=Salt Peanuts
TTITLE10=Oop-Pop-a-Da
TTITLE11=Toccata for Trumpet
TTITLE12=Cubano-Be, Cubano-Bop
TTITLE13=Hot House
TTITLE14=Things to Come
EXTD=YEAR: 1947
EXTT0=
EXTT1=
EXTT2=
EXTT3=
EXTT4=
EXTT5=
EXTT6=
EXTT7=
EXTT8=
EXTT9=
EXTT10=
EXTT11=
EXTT12=
EXTT13=
EXTT14=
PLAYORDER=
